<?xml version="1.0" encoding="UTF-8"?>
<!DOCTYPE svg PUBLIC "-//W3C//DTD SVG 1.1//EN" "http://www.w3.org/Graphics/SVG/1.1/DTD/svg11.dtd">
<svg xmlns="http://www.w3.org/2000/svg" version="1.1" width="396px" height="382px" style="shape-rendering:geometricPrecision; text-rendering:geometricPrecision; image-rendering:optimizeQuality; fill-rule:evenodd; clip-rule:evenodd" xmlns:xlink="http://www.w3.org/1999/xlink">
<g><path style="opacity:0.997" fill="#00de28" d="M 190.5,-0.5 C 195.5,-0.5 200.5,-0.5 205.5,-0.5C 216.825,3.32564 224.325,10.9923 228,22.5C 228.667,134.5 228.667,246.5 228,358.5C 224.307,370.025 216.807,377.692 205.5,381.5C 200.5,381.5 195.5,381.5 190.5,381.5C 179.175,377.674 171.675,370.008 168,358.5C 167.333,246.5 167.333,134.5 168,22.5C 171.693,10.9752 179.193,3.30849 190.5,-0.5 Z"/></g>
<g><path style="opacity:0.994" fill="#00de28" d="M 103.5,79.5 C 121.293,78.1481 133.126,85.8148 139,102.5C 139.667,161.167 139.667,219.833 139,278.5C 131.2,298.316 117.033,305.149 96.5,299C 87.4442,294.942 81.6109,288.109 79,278.5C 78.3333,219.833 78.3333,161.167 79,102.5C 82.8871,90.1084 91.0538,82.4417 103.5,79.5 Z"/></g>
<g><path style="opacity:0.994" fill="#00de28" d="M 280.5,79.5 C 298.293,78.1481 310.126,85.8148 316,102.5C 316.667,161.167 316.667,219.833 316,278.5C 308.2,298.316 294.033,305.149 273.5,299C 264.444,294.942 258.611,288.109 256,278.5C 255.333,219.833 255.333,161.167 256,102.5C 259.887,90.1084 268.054,82.4417 280.5,79.5 Z"/></g>
<g><path style="opacity:0.977" fill="#00de28" d="M -0.5,199.5 C -0.5,193.833 -0.5,188.167 -0.5,182.5C 6.95417,162.938 20.9542,155.771 41.5,161C 58.6569,169.835 64.4902,183.668 59,202.5C 51.2421,218.129 38.7421,224.295 21.5,221C 10.3177,217.65 2.98437,210.483 -0.5,199.5 Z"/></g>
<g><path style="opacity:0.977" fill="#00de28" d="M 395.5,181.5 C 395.5,187.167 395.5,192.833 395.5,198.5C 388.046,218.062 374.046,225.229 353.5,220C 336.343,211.165 330.51,197.332 336,178.5C 343.758,162.871 356.258,156.705 373.5,160C 384.682,163.35 392.016,170.517 395.5,181.5 Z"/></g>
</svg>
