<?xml version="1.0" encoding="utf-8"?><!-- Uploaded to: SVG Repo, www.svgrepo.com, Generator: SVG Repo Mixer Tools -->
<svg width="800px" height="800px" viewBox="0 0 24 24" fill="none" xmlns="http://www.w3.org/2000/svg">
<path d="M13.71 16.32C13.5617 16.32 13.4167 16.276 13.2933 16.1936C13.17 16.1112 13.0739 15.9941 13.0171 15.857C12.9603 15.72 12.9455 15.5692 12.9744 15.4237C13.0034 15.2782 13.0748 15.1446 13.1797 15.0397C13.2846 14.9348 13.4182 14.8633 13.5637 14.8344C13.7092 14.8055 13.86 14.8203 13.997 14.8771C14.1341 14.9339 14.2512 15.03 14.3336 15.1533C14.416 15.2767 14.46 15.4217 14.46 15.57C14.4574 15.7681 14.3776 15.9574 14.2375 16.0975C14.0974 16.2376 13.9081 16.3174 13.71 16.32Z" fill="#000000"/>
<path d="M13.5 13.83C13.3011 13.83 13.1103 13.751 12.9697 13.6103C12.829 13.4697 12.75 13.2789 12.75 13.08C12.75 12.8811 12.829 12.6903 12.9697 12.5497C13.1103 12.409 13.3011 12.33 13.5 12.33C13.9607 12.2959 14.3914 12.0888 14.7058 11.7503C15.0201 11.4118 15.1948 10.9669 15.1948 10.505C15.1948 10.0431 15.0201 9.5982 14.7058 9.25971C14.3914 8.92121 13.9607 8.71412 13.5 8.68C12.8148 8.59492 12.1226 8.76976 11.56 9.17C11.3453 9.39266 11.1808 9.65865 11.0773 9.95012C10.9738 10.2416 10.9338 10.5518 10.96 10.86C10.96 11.0589 10.881 11.2497 10.7403 11.3903C10.5997 11.531 10.4089 11.61 10.21 11.61C10.0111 11.61 9.82034 11.531 9.67969 11.3903C9.53904 11.2497 9.46002 11.0589 9.46002 10.86C9.42154 10.3308 9.50117 9.7997 9.69314 9.30508C9.88511 8.81045 10.1846 8.36467 10.57 8C11.422 7.33772 12.4966 7.02966 13.57 7.14C14.0003 7.14521 14.4253 7.2353 14.8207 7.4051C15.2161 7.5749 15.5741 7.82107 15.8742 8.12951C16.1743 8.43794 16.4105 8.80256 16.5694 9.20248C16.7283 9.60239 16.8066 10.0297 16.8 10.46C16.8053 10.8981 16.7241 11.333 16.5609 11.7397C16.3978 12.1464 16.1561 12.5169 15.8495 12.83C15.5429 13.143 15.1776 13.3925 14.7744 13.5641C14.3713 13.7357 13.9382 13.8261 13.5 13.83Z" fill="#000000"/>
<path d="M13.08 20.49C11.6861 20.4801 10.3147 20.1372 9.08001 19.49C8.98784 19.4476 8.90524 19.3869 8.8372 19.3116C8.76917 19.2363 8.71711 19.148 8.68419 19.052C8.65127 18.9561 8.63817 18.8544 8.64568 18.7532C8.65319 18.652 8.68116 18.5534 8.72789 18.4633C8.77461 18.3733 8.83913 18.2936 8.91753 18.2292C8.99594 18.1648 9.0866 18.117 9.18402 18.0886C9.28145 18.0602 9.38361 18.052 9.48433 18.0642C9.58506 18.0765 9.68224 18.1091 9.77001 18.16C11.2111 18.9002 12.8566 19.1428 14.45 18.85C15.7241 18.5971 16.9068 18.0066 17.8745 17.1401C18.8422 16.2737 19.5594 15.1632 19.951 13.9247C20.3427 12.6863 20.3944 11.3653 20.1008 10.1C19.8072 8.83473 19.1791 7.67155 18.2821 6.73209C17.3851 5.79264 16.2522 5.11142 15.0018 4.75966C13.7514 4.4079 12.4295 4.39852 11.1743 4.73251C9.91902 5.06649 8.77656 5.73157 7.86633 6.6582C6.95609 7.58484 6.31152 8.739 6.00001 10C5.55529 11.8708 5.86038 13.8413 6.85001 15.49C6.94403 15.6571 6.97052 15.8538 6.92402 16.0398C6.87753 16.2257 6.76159 16.3868 6.60001 16.49C6.43295 16.584 6.23623 16.6105 6.05026 16.564C5.86428 16.5175 5.70317 16.4016 5.60001 16.24C4.86968 15.0324 4.44298 13.6658 4.35648 12.2573C4.26997 10.8487 4.52623 9.44013 5.1033 8.15228C5.68038 6.86443 6.56106 5.73568 7.6699 4.86273C8.77874 3.98978 10.0827 3.39865 11.47 3.14C13.7522 2.71433 16.11 3.21269 18.0248 4.52544C19.9395 5.83819 21.2543 7.85781 21.68 10.14C22.1057 12.4222 21.6073 14.78 20.2946 16.6947C18.9818 18.6095 16.9622 19.9243 14.68 20.35C14.1515 20.4412 13.6163 20.4881 13.08 20.49Z" fill="#000000"/>
<path d="M5.33001 21C5.09027 21.0057 4.85298 20.9507 4.64026 20.8399C4.42755 20.7292 4.24635 20.5664 4.11356 20.3667C3.98076 20.167 3.90071 19.937 3.88085 19.698C3.861 19.459 3.90199 19.2189 4.00001 19L5.53001 15.58C5.61357 15.4025 5.76334 15.2648 5.94722 15.1965C6.13109 15.1281 6.33444 15.1345 6.51365 15.2143C6.69286 15.2941 6.83367 15.4409 6.9059 15.6233C6.97812 15.8057 6.97601 16.0091 6.90001 16.19L5.48001 19.45L9.15001 18.14C9.24441 18.0986 9.34633 18.077 9.44942 18.0768C9.5525 18.0765 9.65454 18.0975 9.74916 18.1384C9.84377 18.1793 9.92894 18.2393 9.99933 18.3146C10.0697 18.3899 10.1238 18.4789 10.1583 18.5761C10.1927 18.6733 10.2068 18.7765 10.1996 18.8793C10.1924 18.9822 10.164 19.0824 10.1163 19.1738C10.0686 19.2652 10.0026 19.3457 9.92236 19.4105C9.84213 19.4752 9.74942 19.5227 9.65001 19.55L5.80001 20.92C5.64956 20.9752 5.49025 21.0023 5.33001 21Z" fill="#000000"/>
</svg>